<svg version="1.2" xmlns="http://www.w3.org/2000/svg" viewBox="0 0 1581 338" width="1581" height="338"><style>.a{fill:#fff}</style><path class="a" d="m1477 46.5c-20-19.9-46.1-22-46.1-22-52 22.1-104.3 53.8-104.3 53.8 0 0 78.3-35.3 158.9-18.9 0 0-4.5-9-8.5-12.9z"/><path class="a" d="m1574.4 22.9c-22.9-34.7-84.9-22.7-124.7-10.4 11.4 3.1 74.5 8.3 51.6 104.3-13.5 57-54.4 124.1-52.6 127.4 2.5 4.7 165.8-160.8 125.7-221.3z"/><path fill-rule="evenodd" class="a" d="m1403.8 337.6h-46c-16.6 0.2-24.4-9.5-24.4-9.5 0 0-2.8-3.2-7.1-8.1l-0.1 0.1-59.2-67.5c-6-0.1-10-0.1-10.4-0.1-1.4-0.2-2.3-0.2-2.3-0.2h-55.8v71.5c0 14-11.8 13.8-11.8 13.8h-33.5v-205.2c0 0 0.8-12.8 17.2-12.8h128.3c13.5 0 32.1 0 48.4 9 19.1 11 31 32.7 31 56.7 0 12.8-3.2 24.6-9 34.5-0.3 0.4-0.5 0.8-0.8 1.2-3.6 5.9-8.2 11.1-13.7 15.5-9 6.9-19.3 10.7-29.1 12.9zm-116.2-128.5c17.8 0 31-0.5 38-8.1 3.5-3.7 5.7-10.1 5.7-16.6 0-8.6-4.1-14.8-7.6-17.3-6.3-4.9-15.2-4.9-24.5-4.9h-86c-16.3 0-14.7 12.2-14.7 12.2v34.7zm-507.8 85.6h121.3v27.8c0 16.9-14.2 15.1-14.2 15.1h-170.4v-218.1h31.1c0 0 14.4 3.1 14.4 13.8v145.6c0 0-2.9 15.8 17.8 15.8zm-542.1-22.8c0 20.9-8.3 39.6-22.6 51.1-12.1 9.7-29.6 14.6-52 14.6h-162.2v-203.3c0 0 2.4-14.8 23.3-14.8h128.1c16.2 0 36.3 0 54.1 15.1 13.6 11.2 21.6 28.1 21.6 46.3 0 12.9-4.2 25.8-11.4 35.4-1.2 1.5-2.4 3-3.6 4.2 15.6 11.3 24.7 29.9 24.7 51.4zm-191.3-69.2h103.2c9.4 0 19.9-0.6 26.6-6.8 4.8-4.5 5.4-9.7 5.4-13.6 0-8.6-4.1-14.4-8-16.9-2.4-1.6-8.1-3.5-21-3.5h-89.1c-8.2 0-17.1 1.2-17.1 11.3 0 7.3 0 29.5 0 29.5zm145.5 69.4c0-11.4-5.2-16.5-6.2-17.5l-1-0.9c-2.8-3-11.1-7.9-36.4-7.9h-101.9v48.9h116.2c8.5 0 18-0.8 23.7-6.9 1.4-1.4 5.6-6.5 5.6-15.7zm770.4 22.6h172v31c0 12.5-11.6 11.9-11.6 11.9h-205.9v-202.9c0 0-1.5-15.2 20.4-15.2h189.3v31.2c0 12.4-12.4 11.7-12.4 11.7h-125.4l-3.8 0.1h-5.6c-8.1 0-17 1.2-17 11.3 0 1 0 27.1 0 28.6h151.7v32.3c0 0 1.3 10.6-10.8 10.6h-140.9zm-460.9 3c27.9 0 70.4-0.1 86.7-0.1 1.7 0 3.8 0 6.2-0.1 17.1-0.5 57.1 0.8 60.9-21.5 0.3-1.3 0.5-2.4 0.4-3.4-0.8-8.8-4.9-24.4-63.6-27-32.3-1.4-55.3-2.4-74.9-9.8-23.5-8.8-35.8-25.3-36.5-48.9l-0.2-2.1c0-40.3 33.1-62.8 92.7-65.3 3.4-0.2 6.8-0.3 10.4-0.3l4.2 0.1 1.8-0.1c27.6 0 54.6 0.2 101.1 0.3v27.5c0 14.9-17.2 13.6-17.2 13.6-38.1-0.1-62.5-0.1-80.3-0.1-1.6 0-3.8 0-6.1 0.1l-2.5-0.2c-2.8 0-6.7 0.1-11.3 0.4-17.8 1-46.3 3.6-46.3 20.6 0 1.4 0.1 2.5 0.4 3.5 1.6 6.4 8.6 14.5 57.3 16.6l2.9 0.1c33 1.3 59 6 79.7 15 24 10.3 36.1 28.8 36.1 54.9 0 1.3 0 2.8-0.1 4.3v0.5l-0.3 2.3c-2.2 24.1-14 56.8-99.8 58.9l-0.4 0.3-2.8-0.1-3.2 0.1c-29.8 0-59.5-0.2-95-0.2l-14-28.3c0 0-5-11.5 13.7-11.6zm-18.7 39.9c-8.7 0-18.5 0-29.7 0h-7.4c-12.2 0-14.6-5.3-17.9-11.9-4.3-8.6-19.1-37.7-19.1-37.7h-87.3c-19.3 0-26.7 15.7-26.7 15.7l-16.7 33.9h-40.1c-9.5 0-5-7.6-5-7.6 0 0 11.1-22.5 26.1-52.7 6.4-8.5 25.5-28.3 63.9-31.4l-0.1 0.1h64.9l-32.8-65.6-28.6 52.1c-27.9 1.5-46.7 11-58.5 20.3 22-44.5 48.2-91.4 60.7-117.6 6-12.7 7.4-15.6 26.7-15.6h18.2z"/></svg>