<svg version="1.2" xmlns="http://www.w3.org/2000/svg" viewBox="0 0 1559 1032" width="1559" height="1032">
	<title>NVDA-df4c2377-svg</title>
	<style>
		.s0 { fill: #ffffff } 
	</style>
	<path id="Layer" fill-rule="evenodd" class="s0" d="m1557.9-0.5v1030.3h-975.9v-121c20.6 2.3 41.3 3.5 63.1 3.5 225.9 0 624.4-115.3 795.3-258.6-25.3-25.2-147.4-83.2-177.2-107.2-180.1 154.8-365.8 286.1-622.7 286.1-19.5 0-39.6-1.8-59.1-4.1v-86c23.5 4.1 47 6.4 71.1 6.4 275.8 0 540.7-322.3 540.7-322.3 0 0-231.1-302.1-584.8-290.1l-27.6 1.8v-138.8zm-949.5 213.3c254.6-8 421.4 219 421.4 219 0 0-180 250-373.2 250-25.8 0-51.1-4-75.1-12.1v-282c99.1 12 119.2 55.6 178.3 154.8l132.4-111.3c0 0-96.9-126.7-259.7-126.7-17.2-0.6-34.4 0.6-51.6 2.3v-92.8c-281.2 22-421.5 229.3-421.5 229.3 0 0 107.3 346.3 421.5 385.2v80.3c-428.3-40.1-580.9-481.6-580.9-481.6 0 0 269.5-263.7 581.5-288.9v75.6c8.9-0.6 17.9-1.1 26.9-1.1zm-27.5 530.3c-237.4-42.4-303.3-289.5-303.3-289.5 0 0 114.1-126.1 303.3-146.8v80.3h-0.6c-99.2-12.1-177.2 80.8-177.2 80.8 0 0 44.2 156.5 177.8 201.8z"/>
</svg>