<svg version="1.1" id="Layer_1" xmlns="http://www.w3.org/2000/svg" xmlns:xlink="http://www.w3.org/1999/xlink" x="0px" y="0px"
	 width="100%" viewBox="0 0 1184 864" enable-background="new 0 0 1184 864" xml:space="preserve">
<path fill="#6D6D6C" opacity="1.000000" stroke="none"
	d="
M1.000000,864.500000 
	C395.366058,863.998962 789.732117,863.997925 1184.549072,863.998413 
	C1184.833374,864.333374 1184.684204,864.943848 1184.497192,864.955505 
	C1183.169067,865.039001 1181.833374,865.000000 1180.500000,865.000000 
	C787.333313,865.000000 394.166656,865.000000 1.000000,864.500000 
z"/>
<path fill="#B9B9B8" opacity="1.000000" stroke="none" 
	d="
M957.954407,550.107971 
	C953.687256,546.014160 949.420105,541.920288 944.809814,537.371460 
	C944.351746,536.598755 944.236755,536.281006 944.454834,535.839233 
	C945.319702,535.253418 945.851562,534.791687 946.641663,534.554443 
	C948.132568,535.913208 949.365295,537.047424 950.597961,538.181580 
	C951.164124,537.786133 951.730225,537.390686 952.296326,536.995239 
	C947.718018,528.124451 943.139709,519.253723 938.089417,509.468414 
	C935.828430,515.957397 933.658203,521.037170 939.081177,525.630066 
	C941.172485,527.401306 942.760071,529.767151 944.201416,531.888794 
	C942.733704,532.246033 941.641785,532.576599 940.288879,532.986084 
	C941.243164,534.738342 941.860962,535.872803 942.677979,537.224121 
	C943.117310,537.749329 943.357544,538.057678 943.597778,538.366028 
	C948.781433,549.502686 954.053040,560.600098 959.062012,571.814819 
	C959.896484,573.683044 959.587708,576.062012 959.807190,578.204956 
	C957.615173,578.127869 955.288269,578.496155 953.259094,577.881470 
	C948.977600,576.584473 944.851807,574.773071 940.297363,572.692383 
	C939.215881,569.958923 938.276978,569.592041 937.026489,571.869812 
	C936.536377,571.807434 935.993713,571.860474 935.564270,571.664917 
	C931.266968,569.708435 927.711670,569.653503 925.805603,574.968262 
	C925.447144,575.967773 924.295105,576.682678 922.773132,577.416992 
	C921.748230,577.203918 921.459534,577.102844 921.170776,577.001709 
	C920.403992,573.031738 919.726624,569.199585 914.834106,567.861511 
	C910.652039,566.717590 907.709351,566.876465 905.526917,571.390381 
	C904.040161,574.465210 901.313721,576.940613 898.204102,580.868286 
	C896.786621,576.180725 896.209961,573.078918 894.867126,570.354858 
	C894.229553,569.061646 892.148193,567.751221 890.689575,567.715149 
	C883.506653,567.537415 878.857727,571.293823 876.918701,578.633057 
	C876.336304,578.561096 875.753906,578.489136 875.171570,578.417175 
	C873.762756,574.604919 872.353882,570.792664 870.643677,566.164795 
	C863.539368,566.164795 855.488831,566.080688 847.445801,566.288574 
	C846.595398,566.310547 845.710022,567.990356 844.978210,569.000610 
	C843.141235,571.536133 841.382996,574.128723 838.814697,576.526062 
	C837.722717,576.236389 837.409180,576.119019 837.095642,576.001709 
	C835.366699,572.997498 836.565979,567.770142 831.182129,567.539490 
	C823.716553,567.219666 821.448853,568.926086 817.791138,576.699524 
	C816.603210,576.995483 815.941772,576.993286 815.280334,576.991089 
	C813.995422,574.563721 812.710510,572.136353 811.190002,569.263794 
	C808.556885,569.857727 805.743835,570.492310 802.391602,570.899048 
	C801.527161,570.022400 801.201904,569.373474 800.967896,568.398254 
	C802.791504,566.371033 804.492004,563.255005 806.261780,563.215149 
	C813.766235,563.046143 813.283142,557.011658 815.397705,552.329712 
	C817.819153,550.819458 819.906128,549.544983 821.993103,548.270508 
	C821.993103,548.270508 822.273987,547.997620 822.799072,547.858337 
	C823.841675,547.020935 824.359192,546.322815 824.876709,545.624634 
	C825.665100,542.344727 826.453552,539.064880 827.325195,535.104126 
	C826.559937,533.046082 825.711487,531.668823 824.857056,530.281860 
	C823.115723,531.919373 821.944214,533.021118 820.772705,534.122803 
	C815.413269,527.443176 809.968323,520.829163 804.748352,514.042236 
	C803.251099,512.095520 802.403992,509.648682 801.096802,506.742249 
	C799.611572,505.373108 798.288391,504.692810 796.965271,504.012512 
	C778.861450,476.155426 772.351746,446.429382 782.793335,414.116150 
	C785.556458,405.565186 791.111877,399.007050 798.922424,394.456177 
	C804.508301,391.201538 807.508728,384.720734 804.669373,379.097961 
	C794.838562,359.630402 798.305420,340.923645 807.129517,322.438904 
	C808.742554,319.059937 808.193726,317.255341 805.338989,314.959473 
	C796.270752,307.666504 789.690857,298.581512 787.455566,286.919067 
	C786.929749,284.175903 787.377747,281.246033 787.377747,277.799866 
	C789.093750,278.480133 789.888916,278.672211 790.554321,279.077484 
	C802.341492,286.257080 814.055603,293.560028 825.952698,300.551849 
	C827.633606,301.539764 830.477661,301.798157 832.297852,301.110077 
	C855.736328,292.249756 879.101257,291.772095 902.575745,300.921936 
	C903.862183,301.423370 905.901489,301.192749 907.118286,300.487915 
	C919.481384,293.326263 931.736938,285.979156 944.057983,278.744385 
	C944.960205,278.214630 946.137634,278.153595 947.187073,277.874634 
	C947.471497,279.080536 948.116943,280.327576 947.984924,281.486023 
	C946.523438,294.309753 940.543762,304.809143 931.183167,313.504822 
	C929.727051,314.857544 928.178589,316.110901 926.231995,317.790588 
	C927.126709,319.212708 927.946350,320.572205 928.820312,321.895782 
	C938.237915,336.158386 942.145081,351.918365 936.485657,368.060608 
	C932.284912,380.042297 936.266541,387.585083 945.382629,393.333679 
	C958.576355,401.653625 965.520813,413.921814 969.296936,428.265503 
	C974.226501,446.990601 975.365784,466.024078 971.481873,485.619141 
	C970.702454,486.689850 970.343567,487.341614 969.984619,487.993378 
	C969.827271,492.788574 970.796204,497.973022 969.298889,502.305145 
	C964.988770,514.776062 967.432068,527.643982 965.811218,540.213379 
	C965.559631,542.164001 964.026733,543.949463 962.483521,545.452759 
	C961.256958,545.407410 960.633118,545.720642 960.009338,546.033875 
	C960.033325,546.782532 960.057373,547.531189 959.695129,548.717163 
	C958.857422,549.472290 958.405884,549.790161 957.954407,550.107971 
M845.036011,345.968719 
	C845.036011,345.968719 845.033752,346.061218 845.008972,345.303131 
	C844.166382,344.848785 843.323792,344.394440 842.194885,343.659302 
	C841.810425,343.288208 841.425964,342.917114 840.807373,341.831116 
	C840.182129,341.546967 839.556824,341.262787 838.986877,340.941254 
	C838.986877,340.941254 839.023254,340.997131 839.278381,340.302673 
	C836.051147,337.014099 833.081055,333.412231 829.540039,330.506012 
	C823.298401,325.383453 820.423584,325.705078 814.421082,331.237305 
	C801.571716,343.079956 803.734863,367.132629 818.512390,376.730316 
	C830.932068,384.796661 845.454163,380.185791 850.944763,366.435822 
	C851.623596,364.735931 851.903320,362.616791 853.102112,361.439453 
	C855.469971,359.114014 858.230225,355.952911 861.057678,355.699707 
	C863.571838,355.474548 866.622314,358.452454 868.998108,360.519928 
	C870.405151,361.744415 870.945068,363.954712 871.905457,365.704956 
	C880.116516,380.667969 898.505981,385.705566 912.154358,376.736816 
	C925.495544,367.969910 928.910950,347.571320 919.200317,334.654388 
	C912.882324,326.250244 907.216125,324.884552 898.365479,330.224670 
	C893.398743,333.221375 888.707397,336.720551 884.120667,340.287506 
	C880.056152,343.448364 876.478333,347.246857 872.341858,350.297729 
	C870.519165,351.642090 867.810425,352.527740 865.564026,352.415741 
	C858.803040,352.078735 851.710632,352.349762 846.416992,346.801697 
	C846.377136,346.759857 846.125305,346.920197 846.032593,347.002930 
	C846.032593,347.002930 846.008911,347.060883 846.103455,346.393738 
	C845.716858,346.250885 845.330200,346.108032 845.036011,345.968719 
M850.541138,545.572083 
	C849.220703,550.041809 850.855591,551.902527 855.906982,551.686584 
	C857.520203,553.549133 859.424438,555.234802 860.686401,557.310852 
	C863.359375,561.708496 870.992615,562.282349 873.550171,557.878662 
	C876.715454,552.428589 881.025085,549.095825 887.460449,548.802368 
	C890.814514,548.649475 892.131714,546.843079 891.596741,543.131226 
	C880.163452,542.905823 869.765930,539.462830 861.175903,532.986572 
	C858.359375,535.590027 856.004150,537.767090 853.339111,538.873169 
	C853.186951,538.146606 853.034790,537.420105 853.149292,536.030701 
	C853.722229,533.170288 854.295166,530.309814 854.706055,526.743408 
	C853.978821,526.206543 853.251587,525.669617 851.978882,524.808411 
	C843.319275,517.248657 834.659668,509.688934 825.955078,501.412354 
	C824.727051,497.452911 824.388428,497.245636 821.568787,499.605347 
	C820.803589,510.703827 825.208984,520.573486 829.781128,530.106689 
	C832.647400,536.083008 831.648804,541.031494 829.104797,546.196472 
	C828.064880,548.307861 826.088928,549.958191 824.654907,551.678894 
	C825.881287,553.434082 827.298218,554.924255 828.053650,556.696411 
	C828.790283,558.424255 828.850647,560.440430 829.207886,562.330017 
	C829.632202,562.480103 830.056580,562.630249 830.480896,562.780334 
	C831.293579,560.844116 832.106262,558.907837 833.548889,556.738220 
	C834.019226,555.790222 834.489563,554.842285 835.361938,553.252258 
	C840.875488,550.434082 845.438110,552.103394 846.593323,558.091064 
	C847.263245,561.563538 848.847656,562.052551 851.613403,561.735474 
	C853.366760,561.534363 855.111633,561.259644 858.325195,560.815430 
	C856.022339,558.661499 854.864563,557.077759 853.307861,556.207214 
	C845.625671,551.911377 844.539246,547.748718 850.352295,539.835815 
	C851.439209,539.888062 852.526062,539.940308 854.187134,540.465088 
	C853.811707,541.075806 853.436279,541.686462 852.690308,542.602905 
	C852.126892,543.401917 851.563416,544.200989 850.541138,545.572083 
M842.883240,561.238464 
	C841.574280,559.469849 840.265320,557.701233 838.956421,555.932617 
	C837.997742,557.988037 836.192200,560.082214 836.284119,562.089539 
	C836.413513,564.916077 837.949280,567.678162 839.314270,571.753174 
	C840.833801,568.311340 841.802856,566.116211 843.271179,563.823059 
	C843.192505,563.215515 843.113770,562.608032 842.883240,561.238464 
M903.876648,555.981140 
	C903.250854,555.863159 902.625000,555.745178 901.307434,555.845032 
	C896.547363,559.772888 896.163940,564.445496 900.227905,571.872925 
	C903.584900,567.098633 906.883911,562.630432 903.876648,555.981140 
M951.158752,493.638245 
	C950.429932,492.762054 949.701111,491.885864 948.444519,490.546539 
	C948.113892,490.178406 947.656860,489.434235 947.470947,489.496704 
	C941.545593,491.488251 936.867737,489.153870 932.408142,485.167145 
	C939.754700,504.485901 948.859863,522.606628 961.380371,539.161194 
	C962.206360,530.230103 962.058044,521.488037 962.269531,512.754639 
	C962.373901,508.448273 961.289429,505.265076 957.696533,502.460419 
	C954.916321,500.290131 953.069397,496.924255 951.158752,493.638245 
M807.927795,373.514130 
	C807.820923,373.801880 807.714050,374.089661 807.704041,375.075867 
	C811.857849,383.846802 819.090698,388.960968 828.213379,391.082825 
	C836.198853,392.940216 843.525757,396.031342 849.556641,401.382507 
	C856.888794,407.888245 863.760620,407.567383 871.528259,402.314789 
	C880.306335,396.378967 889.918213,392.491119 900.702637,391.490570 
	C905.080750,391.084412 909.483276,389.474945 913.572388,387.711914 
	C923.407776,383.471313 930.229004,376.553009 932.684937,365.623627 
	C936.020813,350.778442 933.407532,337.207855 925.012207,324.665497 
	C921.174744,318.932404 919.976318,318.864441 914.350525,323.600311 
	C930.490479,337.867615 934.048218,355.990997 923.822815,371.727264 
	C919.545593,378.309662 913.535278,382.538971 906.077148,384.707611 
	C894.623230,388.038147 884.468750,384.928528 875.472473,377.773499 
	C867.527527,383.275879 865.440247,392.074036 860.858765,400.053925 
	C856.982178,392.465118 853.437744,385.526581 849.581116,377.976898 
	C842.745605,384.418701 835.505859,385.968506 827.510010,385.174530 
	C819.272705,384.356598 813.697632,379.146179 807.927795,373.514130 
M924.957947,530.193115 
	C927.418579,523.491943 930.170349,516.877625 932.207520,510.050171 
	C933.118347,506.997498 933.456726,503.251831 932.544983,500.284698 
	C930.558594,493.820587 927.603821,487.654022 925.087830,481.471497 
	C916.289246,489.018341 907.737854,496.339752 899.202026,503.679230 
	C892.958008,509.048126 891.482544,515.867493 893.366394,523.592773 
	C894.034912,526.333862 895.491760,528.943481 895.792664,531.700012 
	C896.305481,536.397949 896.675354,541.214050 896.200623,545.888672 
	C895.720825,550.614014 893.063843,553.320740 887.520508,553.444275 
	C879.297424,553.627747 874.039673,561.875977 876.349915,570.617737 
	C880.012268,565.541992 884.736145,563.008545 890.783203,562.738281 
	C891.752136,562.694885 893.092163,560.707092 893.462097,559.393311 
	C894.681824,555.061768 896.564392,551.338196 901.610291,551.331055 
	C906.728149,551.323853 908.352112,555.313416 909.707214,559.480103 
	C910.134277,560.793213 911.372192,562.713684 912.393494,562.816101 
	C917.646790,563.343445 921.371277,565.812805 923.629639,570.752380 
	C927.294250,564.137390 926.499451,559.622925 920.830017,553.578491 
	C920.174011,553.484924 919.517944,553.391418 918.080627,553.219849 
	C916.578430,551.368408 913.607849,549.269653 913.869629,547.715271 
	C914.477051,544.108887 916.389343,540.614319 918.294617,537.382080 
	C919.187073,535.868042 921.287476,535.065979 923.461121,533.837280 
	C923.899048,532.856750 924.336975,531.876221 924.957947,530.193115 
M904.640503,305.702911 
	C904.095337,305.797699 903.550171,305.892517 902.260315,305.878601 
	C879.012268,296.773682 855.773926,296.884796 832.683960,306.298370 
	C829.783325,307.480927 827.998413,307.008484 825.505310,305.512177 
	C814.558289,298.941925 803.439209,292.658325 791.558167,285.794556 
	C792.136353,287.973572 792.400635,289.533356 792.958252,290.980194 
	C796.740723,300.795563 802.960999,308.681305 812.228760,313.758789 
	C825.789062,321.187988 837.886169,330.419128 848.379150,341.768860 
	C849.166809,342.620819 850.069885,343.374298 850.968140,344.114410 
	C857.445984,349.452423 867.472412,349.304077 873.424316,343.398895 
	C884.223389,332.684692 896.787598,324.788605 910.700867,318.802032 
	C915.880127,316.573486 921.084473,314.164856 925.763489,311.063202 
	C934.830261,305.052979 939.688232,295.976166 943.184937,285.603302 
	C936.487915,289.530884 930.446899,293.335114 924.163696,296.684998 
	C917.901001,300.023895 911.395325,302.907166 904.640503,305.702911 
M947.328979,478.597961 
	C951.828857,487.126831 955.036072,496.621643 964.037415,501.786896 
	C964.645142,501.673859 965.252930,501.560791 965.860657,501.447754 
	C965.473816,494.634888 965.086914,487.822021 965.395813,480.972992 
	C966.252563,480.675964 967.109314,480.378937 968.557617,479.464874 
	C970.201050,460.393158 969.359619,441.538361 962.828979,423.341278 
	C959.829651,414.984131 955.522522,407.263306 948.769653,401.232330 
	C939.416687,392.879150 928.963989,394.224884 922.991943,405.175842 
	C920.359314,410.003204 918.029785,415.805908 918.100403,421.132202 
	C918.257568,432.979858 919.051453,445.002319 921.408569,456.582520 
	C923.478577,466.752014 929.203552,475.750214 937.097961,482.874146 
	C938.509399,484.147827 941.038330,484.948212 942.865906,484.684113 
	C943.827698,484.545105 944.388489,481.631592 945.499939,479.592712 
	C945.972046,479.070190 946.444153,478.547699 947.328979,478.597961 
M919.538757,479.775085 
	C920.306763,478.308990 921.074768,476.842926 921.815857,474.651611 
	C921.082397,471.772278 920.528015,468.832886 919.585205,466.023834 
	C915.042725,452.491241 912.111328,438.696594 912.884949,424.338409 
	C913.716614,408.901642 917.513855,395.251160 935.033691,390.410217 
	C933.300537,387.464966 931.746887,384.824829 930.174805,382.153290 
	C917.580200,391.862152 913.126953,394.776520 902.185120,396.171936 
	C891.463684,397.539276 881.784668,400.965027 873.090820,407.104523 
	C863.723328,413.719696 855.238708,412.643250 846.933899,405.283722 
	C841.597778,400.554871 835.311096,397.929016 828.327759,396.176880 
	C823.303162,394.916199 818.740540,391.781799 814.007690,389.411743 
	C812.770447,388.792206 811.666626,387.906250 810.911499,387.411316 
	C809.986633,393.189087 809.238647,398.645264 808.192383,404.043640 
	C807.721375,406.473999 806.595520,408.770844 805.867676,411.159058 
	C797.333069,439.163208 801.390442,466.047363 819.669312,488.074890 
	C833.513550,504.758270 851.764709,517.881714 868.600281,531.935791 
	C874.942139,537.229858 883.264221,538.776855 892.347290,537.640442 
	C891.457764,534.725403 890.672913,532.074951 889.840820,529.439453 
	C884.953125,513.957581 887.317322,506.357208 899.850220,496.136200 
	C906.288757,490.885498 912.485779,485.338654 919.538757,479.775085 
M791.257935,453.946716 
	C795.482178,434.943298 799.706360,415.939850 804.092590,396.207458 
	C801.143250,398.253021 797.535400,399.629486 795.714233,402.248413 
	C791.694580,408.028961 787.216675,414.048798 785.335815,420.656982 
	C778.976990,442.997833 782.383301,464.799652 791.408447,485.895538 
	C791.592285,486.325317 792.182495,486.581299 792.279480,486.662933 
	C791.912354,476.053680 791.545776,465.461975 791.257935,453.946716 
M954.103882,571.237183 
	C947.106689,556.302246 940.109436,541.367249 933.424622,527.099182 
	C928.727783,532.517883 924.332947,537.601746 919.921814,542.671509 
	C917.507324,545.446533 917.722778,548.355713 920.711304,549.309204 
	C926.934387,551.294739 929.538940,555.841064 930.583984,561.863098 
	C930.831543,563.289795 931.649475,565.306213 932.752625,565.782288 
	C939.156006,568.545654 945.707886,570.971558 952.267090,573.353088 
	C952.729675,573.521118 953.654663,572.415649 954.103882,571.237183 
M816.735413,506.639099 
	C816.518372,503.154694 816.552612,499.630066 816.004028,496.198700 
	C815.572327,493.498749 815.026978,490.473206 813.485168,488.354095 
	C806.806946,479.175690 802.545288,469.001007 799.858093,458.076874 
	C799.195862,455.384552 798.610046,452.673462 797.830261,449.279724 
	C790.097473,470.659912 804.270081,518.429932 821.028198,526.837585 
	C819.548218,520.022278 818.190002,513.767456 816.735413,506.639099 
M854.599365,377.450775 
	C856.490234,381.714478 858.381104,385.978180 860.210144,390.102448 
	C863.415100,385.306458 866.469421,380.836761 869.387634,376.279907 
	C869.939453,375.418182 870.465271,373.987488 870.124207,373.199890 
	C868.484497,369.412811 866.732605,365.645294 864.647766,362.089386 
	C863.054077,359.371063 859.679688,359.056091 858.567139,361.562683 
	C856.457153,366.316803 855.606567,371.629883 854.599365,377.450775 
M824.150757,559.314392 
	C823.348328,555.182861 821.148438,554.832825 818.308350,557.399780 
	C815.498718,559.939270 814.736267,566.824036 816.878052,570.961670 
	C819.359070,567.183960 821.687805,563.638123 824.150757,559.314392 
M931.530579,483.503113 
	C931.530579,483.503113 931.485413,483.521362 931.530579,483.503113 
z"/>
<path fill="#F7F7F5" opacity="1.000000" stroke="none" 
	d="
M694.809692,528.274780 
	C680.967468,529.090515 680.970520,529.089600 677.060669,516.457886 
	C675.652283,511.907806 674.225342,507.363434 672.806824,502.816467 
	C672.365356,502.755157 671.923950,502.693848 671.482483,502.632507 
	C670.092407,506.925873 668.697144,511.217560 667.316833,515.514099 
	C667.062500,516.305847 666.875671,517.119019 666.645630,517.918762 
	C663.349304,529.380249 663.343506,529.445740 651.634460,528.502380 
	C650.333679,528.397583 648.705139,527.291931 647.991821,526.166687 
	C646.954590,524.530273 646.582458,522.463074 645.976685,520.563721 
	C641.896057,507.769409 637.828613,494.970856 633.611267,481.715973 
	C638.513916,481.715973 642.916138,481.715973 647.662476,481.715973 
	C650.398560,490.599030 653.177307,499.620789 655.956116,508.642548 
	C656.296936,508.686401 656.637817,508.730255 656.978699,508.774109 
	C657.961365,506.087006 659.006897,503.420837 659.909363,500.707031 
	C660.853760,497.867035 661.640442,494.974976 662.531067,492.116608 
	C666.085815,480.708649 666.090820,480.710205 678.816345,481.534210 
	C681.601990,490.507019 684.425964,499.603149 687.249878,508.699249 
	C687.699341,508.720123 688.148804,508.740967 688.598328,508.761810 
	C690.005615,504.438934 691.418945,500.117981 692.817261,495.792206 
	C693.328979,494.209137 693.774353,492.604279 694.302490,491.026947 
	C697.877258,480.349426 697.881775,480.350952 710.216370,481.862122 
	C709.054504,485.666138 707.984985,489.406525 706.770630,493.099304 
	C702.932861,504.769989 699.040771,516.422852 694.809692,528.274780 
z"/>
<path fill="#F9F9F8" opacity="1.000000" stroke="none" 
	d="
M500.737610,416.933655 
	C503.364502,417.024048 505.567444,416.871429 507.675873,417.248047 
	C514.972717,418.551453 521.084167,421.674896 523.169006,429.458923 
	C525.405884,437.810577 522.730103,444.515869 515.210571,449.423828 
	C518.328003,454.213531 521.364014,458.877991 525.007324,464.475677 
	C520.030701,464.475677 515.924438,464.627960 511.844177,464.370026 
	C510.807739,464.304504 509.639008,463.097351 508.905884,462.130585 
	C507.301208,460.014557 505.771912,457.805389 504.512238,455.472046 
	C502.553558,451.843933 499.892365,450.464447 495.428101,452.293060 
	C495.428101,455.958832 495.428101,459.866669 495.428101,464.115295 
	C490.701630,464.115295 486.486969,464.115295 481.833801,464.115295 
	C481.833801,448.474121 481.833801,432.939423 481.833801,416.933228 
	C488.017273,416.933228 494.143799,416.933228 500.737610,416.933655 
M507.762543,429.547028 
	C503.737854,428.808350 499.713165,428.069641 495.441589,427.285614 
	C495.441589,432.591400 495.441589,436.506073 495.441589,440.793610 
	C500.174652,440.598358 505.367889,442.858124 508.467957,438.219177 
	C509.708435,436.362946 508.472839,432.852081 507.762543,429.547028 
z"/>
<path fill="#F9F9F8" opacity="1.000000" stroke="none" 
	d="
M611.550049,528.610718 
	C607.687988,528.897888 604.166687,529.542175 600.756165,529.170410 
	C586.341003,527.599243 577.022400,516.416260 578.254456,502.560364 
	C579.428894,489.352631 591.554077,479.473602 605.499939,480.361969 
	C618.298767,481.177277 628.263672,489.485962 629.884460,500.693665 
	C631.801758,513.950806 625.369751,523.918762 611.550049,528.610718 
M616.140198,502.010651 
	C613.860718,494.078125 608.233887,490.402740 601.012817,492.129578 
	C594.716370,493.635284 590.995178,500.132263 592.283203,507.370972 
	C593.580322,514.661316 598.988586,518.804565 606.073303,517.935669 
	C613.049255,517.080078 616.632202,511.779633 616.140198,502.010651 
z"/>
<path fill="#F8F8F7" opacity="1.000000" stroke="none" 
	d="
M542.852051,428.625031 
	C543.576843,426.896149 544.377747,425.571289 544.714783,424.137360 
	C546.138855,418.076447 549.771057,416.245697 555.914429,416.736450 
	C559.935608,417.057678 561.986938,418.084717 563.585754,421.875214 
	C569.137451,435.037415 575.105652,448.023865 580.906982,461.080933 
	C581.293945,461.951904 581.609619,462.854492 582.198120,464.352203 
	C577.617310,464.352203 573.498230,464.688293 569.493042,464.160095 
	C568.186035,463.987762 566.628784,461.730682 566.141235,460.135162 
	C565.044739,456.547119 563.168396,454.901794 559.312927,455.375946 
	C556.854858,455.678192 554.298828,455.728882 551.846436,455.419525 
	C546.607056,454.758667 542.839233,455.846222 541.658325,461.793945 
	C541.449768,462.844604 539.441406,464.120697 538.152588,464.259888 
	C534.891907,464.612122 531.567688,464.376740 527.122681,464.376740 
	C532.512024,452.141663 537.613403,440.560272 542.852051,428.625031 
M559.226379,442.987549 
	C557.763062,439.216858 556.299744,435.446167 554.453735,430.689240 
	C552.357361,436.024109 550.682251,440.286865 548.360107,446.196411 
	C552.933716,445.169098 556.194641,444.436646 559.226379,442.987549 
z"/>
<path fill="#F8F8F7" opacity="1.000000" stroke="none" 
	d="
M711.600830,443.498444 
	C715.518433,455.043945 723.568787,456.760345 735.200806,448.644073 
	C737.786377,451.027679 740.431824,453.466461 743.026978,455.858948 
	C738.011719,463.788940 726.712158,467.324280 716.239685,464.497375 
	C705.300964,461.544617 697.931152,452.787842 697.348206,442.050385 
	C696.745056,430.942596 702.578735,421.876495 712.940063,417.819244 
	C723.805237,413.564728 736.282288,416.424988 743.043152,424.882172 
	C740.518311,427.382141 737.970520,429.904907 735.208740,432.639526 
	C729.955811,427.655334 723.940369,425.311676 717.190063,429.242065 
	C711.993652,432.267670 710.655396,437.335419 711.600830,443.498444 
z"/>
<path fill="#F9F9F8" opacity="1.000000" stroke="none" 
	d="
M609.907837,448.080200 
	C606.757019,448.078766 604.103210,448.078766 600.837280,448.078766 
	C600.837280,453.390045 600.837280,458.448517 600.837280,463.932861 
	C595.992126,463.932861 591.746216,463.932861 587.061523,463.932861 
	C587.061523,448.580475 587.061523,433.022614 587.061523,417.259033 
	C599.196777,417.259033 611.264038,417.259033 623.611511,417.259033 
	C623.611511,420.622437 623.611511,423.718903 623.611511,427.359558 
	C616.151245,427.359558 608.720886,427.359558 600.908752,427.359558 
	C600.908752,430.915497 600.908752,433.936432 600.908752,437.603943 
	C607.624146,437.603943 614.193665,437.603943 621.008423,437.603943 
	C621.008423,441.307434 621.008423,444.375427 621.008423,448.081604 
	C617.319580,448.081604 613.862183,448.081604 609.907837,448.080200 
z"/>
<path fill="#F8F8F7" opacity="1.000000" stroke="none" 
	d="
M655.925171,437.666260 
	C659.386169,437.666290 662.360779,437.666290 665.592468,437.666290 
	C665.592468,441.280396 665.592468,444.378967 665.592468,447.902252 
	C658.915771,447.902252 652.314636,447.902252 645.222717,447.902252 
	C645.222717,453.359589 645.222717,458.420563 645.222717,463.887299 
	C640.381042,463.887299 636.034973,463.887299 631.440308,463.887299 
	C631.440308,448.212341 631.440308,432.906891 631.440308,417.283264 
	C643.554260,417.283264 655.653015,417.283264 667.717163,417.283264 
	C667.914978,417.645691 668.182190,417.917053 668.204163,418.207001 
	C668.900269,427.393768 668.896667,427.405365 659.692261,427.456207 
	C654.906982,427.482666 650.121521,427.460876 645.102417,427.460876 
	C645.102417,430.985107 645.102417,433.910950 645.102417,437.666229 
	C648.611328,437.666229 652.025085,437.666229 655.925171,437.666260 
z"/>
<path fill="#F8F8F7" opacity="1.000000" stroke="none" 
	d="
M474.121277,427.534912 
	C469.607849,427.642334 465.506927,427.642334 461.074921,427.642334 
	C461.074921,440.095642 461.074921,451.844421 461.074921,463.968689 
	C456.350128,463.968689 451.971985,463.968689 446.988770,463.968689 
	C446.988770,451.981934 446.988770,440.088318 446.988770,427.794434 
	C442.115936,427.794434 437.835144,427.794434 433.110962,427.794434 
	C433.110962,424.037537 433.110962,420.688751 433.110962,417.104675 
	C446.885223,417.104675 460.618927,417.104675 475.323975,417.104675 
	C475.045013,420.748871 474.789398,424.088196 474.121277,427.534912 
z"/>
<path fill="#F7F7F5" opacity="1.000000" stroke="none" 
	d="
M715.466064,516.960083 
	C715.463135,505.001190 715.463135,493.534790 715.463135,481.655884 
	C719.936401,481.655884 724.159058,481.655884 728.994873,481.655884 
	C728.994873,493.286682 728.994873,505.019897 728.994873,517.417114 
	C736.834229,517.417114 744.088135,517.417114 751.649902,517.417114 
	C751.649902,521.317200 751.649902,524.557617 751.649902,528.177734 
	C739.876282,528.177734 728.118591,528.177734 715.469055,528.177734 
	C715.469055,524.591919 715.469055,521.022217 715.466064,516.960083 
z"/>
<path fill="#BCBCBB" opacity="1.000000" stroke="none" 
	d="
M607.000061,562.219177 
	C585.555237,562.219482 564.610413,562.219482 543.442078,562.219482 
	C543.442078,560.385437 543.442078,558.977234 543.442078,557.335388 
	C545.002625,557.209229 546.300598,557.013733 547.598816,557.012329 
	C601.385986,556.954468 655.173157,556.896057 708.960266,556.930603 
	C711.360474,556.932129 713.760132,557.798889 716.160095,558.262573 
	C716.196045,559.038635 716.231995,559.814697 716.267944,560.590759 
	C714.149048,561.118958 712.031616,562.100769 709.911011,562.107605 
	C675.774231,562.218018 641.637085,562.204346 607.000061,562.219177 
z"/>
<path fill="#A6A6A5" opacity="1.000000" stroke="none" 
	d="
M1128.400391,785.699646 
	C1129.285400,786.099609 1130.233032,786.630615 1130.497070,787.397156 
	C1133.987427,797.528809 1140.847900,804.193848 1150.944580,807.629578 
	C1151.537231,807.831177 1152.052856,808.259155 1153.615845,809.173584 
	C1141.356201,813.335938 1132.980103,820.680847 1129.126587,833.121643 
	C1124.799805,821.160278 1117.087769,813.160828 1104.958984,809.051819 
	C1116.549072,804.830933 1124.472412,797.464600 1128.400391,785.699646 
z"/>
<path fill="#F9F9F8" opacity="1.000000" stroke="none" 
	d="
M679.189941,417.015106 
	C682.640137,417.013428 685.618286,417.013428 689.061279,417.013428 
	C689.061279,432.782928 689.061279,448.256714 689.061279,464.013000 
	C684.808533,464.013000 680.562134,464.013000 675.984497,464.013000 
	C675.984497,449.040833 675.939819,434.275085 676.101257,419.511566 
	C676.110474,418.670532 677.806763,417.847961 679.189941,417.015106 
z"/>
<path fill="#B7B7B6" opacity="1.000000" stroke="none" 
	d="
M683.000000,569.315125 
	C690.751404,569.316040 698.002930,569.316040 705.254395,569.316040 
	C705.478821,569.900574 705.703247,570.485107 705.927673,571.069580 
	C703.411865,572.370483 700.908142,574.775879 698.378479,574.803467 
	C668.948303,575.124329 639.514221,575.089294 610.081177,575.129272 
	C609.269775,575.130371 608.458130,574.917053 607.663879,574.806091 
	C605.741577,569.984802 608.316040,569.378113 612.159729,569.384094 
	C635.606384,569.420654 659.053223,569.349487 683.000000,569.315125 
z"/>
<path fill="#BCBCBB" opacity="1.000000" stroke="none" 
	d="
M700.907959,544.641052 
	C702.726746,546.047180 704.151306,547.390808 706.266663,549.386047 
	C704.196655,549.662598 703.011536,549.957703 701.826111,549.959351 
	C671.859741,550.000183 641.893311,549.982117 611.927124,550.063660 
	C608.475464,550.073059 606.197998,549.564453 608.049438,544.578552 
	C638.695374,544.578552 669.604614,544.578552 700.907959,544.641052 
z"/>
<path fill="#B7B7B6" opacity="1.000000" stroke="none" 
	d="
M727.401672,567.394409 
	C725.189941,569.442688 723.456726,571.624329 721.217896,572.956055 
	C718.530640,574.554565 715.412476,575.428772 712.480957,576.616638 
	C712.148926,576.001831 711.816895,575.387024 711.484802,574.772156 
	C716.664307,570.000183 721.843750,565.228210 728.454224,559.137817 
	C722.427063,554.121338 717.262207,549.822571 712.097351,545.523743 
	C712.552612,545.009583 713.007812,544.495361 713.463074,543.981201 
	C724.348633,543.461365 726.941162,554.917786 734.679932,558.942383 
	C735.079224,559.622009 735.478516,560.301636 735.877747,560.981262 
	C733.137268,563.037903 730.396729,565.094604 727.401672,567.394409 
z"/>
<path fill="#B7B7B6" opacity="1.000000" stroke="none" 
	d="
M737.176453,552.833069 
	C734.536987,550.168274 732.151978,547.754822 729.453918,545.024536 
	C736.267639,543.306274 742.143433,547.406372 751.077820,559.270630 
	C746.053589,564.487000 741.191650,569.898926 735.865356,574.807007 
	C734.546448,576.022400 731.721619,575.603516 729.589111,575.935974 
	C729.367310,575.475342 729.145508,575.014771 728.923706,574.554199 
	C734.056335,569.975098 739.189026,565.395996 745.795471,559.502075 
	C742.122192,556.683716 739.776611,554.884033 737.176453,552.833069 
z"/>
<path fill="#B7B7B6" opacity="1.000000" stroke="none" 
	d="
M821.534546,548.371338 
	C819.906128,549.544983 817.819153,550.819458 815.042725,552.319763 
	C805.608154,552.057861 797.986877,558.646790 798.232666,566.642883 
	C798.270935,567.887451 797.353638,571.442505 800.876648,568.724609 
	C801.201904,569.373474 801.527161,570.022400 802.015869,570.995483 
	C801.545532,573.324524 800.911621,575.329346 799.992371,578.236450 
	C794.174744,568.861084 787.135742,575.928894 779.047485,575.632385 
	C781.762024,574.197754 783.296875,573.330627 784.880554,572.564453 
	C786.668701,571.699158 788.448730,570.766602 790.326172,570.148499 
	C792.944641,569.286377 794.117493,567.943420 794.475037,564.916565 
	C795.809326,553.622498 802.928284,547.965820 814.154053,548.590698 
	C816.452087,548.718567 818.768188,548.520142 821.534546,548.371338 
z"/>
<path fill="#B7B7B6" opacity="1.000000" stroke="none" 
	d="
M820.989258,534.369202 
	C821.944214,533.021118 823.115723,531.919373 824.857056,530.281860 
	C825.711487,531.668823 826.559937,533.046082 827.289124,534.676880 
	C825.181763,534.825562 823.193787,534.720581 820.989258,534.369202 
z"/>
<path fill="#B7B7B6" opacity="1.000000" stroke="none" 
	d="
M797.056641,504.330872 
	C798.288391,504.692810 799.611572,505.373108 801.007507,506.391113 
	C799.769592,506.035645 798.458801,505.342438 797.056641,504.330872 
z"/>
<path fill="#B7B7B6" opacity="1.000000" stroke="none" 
	d="
M937.301392,572.029541 
	C938.276978,569.592041 939.215881,569.958923 939.968628,572.518188 
	C939.195190,572.612549 938.385742,572.400879 937.301392,572.029541 
z"/>
<path fill="#B7B7B6" opacity="1.000000" stroke="none" 
	d="
M815.390259,577.227234 
	C815.941772,576.993286 816.603210,576.995483 817.595459,576.997925 
	C817.117554,577.153198 816.308838,577.308289 815.390259,577.227234 
z"/>
<path fill="#B7B7B6" opacity="1.000000" stroke="none" 
	d="
M970.161011,487.799347 
	C970.343567,487.341614 970.702454,486.689850 971.317749,486.009888 
	C971.161926,486.522858 970.749695,487.064087 970.161011,487.799347 
z"/>
<path fill="#B7B7B6" opacity="1.000000" stroke="none" 
	d="
M958.145020,550.238525 
	C958.405884,549.790161 958.857422,549.472290 959.577271,549.076416 
	C959.342285,549.455261 958.838928,549.912170 958.145020,550.238525 
z"/>
<path fill="#B7B7B6" opacity="1.000000" stroke="none" 
	d="
M824.604370,545.794800 
	C824.359192,546.322815 823.841675,547.020935 822.986328,547.801270 
	C823.209778,547.243958 823.770935,546.604492 824.604370,545.794800 
z"/>
<path fill="#B7B7B6" opacity="1.000000" stroke="none" 
	d="
M960.220825,545.807739 
	C960.633118,545.720642 961.256958,545.407410 962.079712,545.295837 
	C961.663208,545.525574 961.047791,545.553650 960.220825,545.807739 
z"/>
<path fill="#B7B7B6" opacity="1.000000" stroke="none" 
	d="
M837.070984,576.308105 
	C837.409180,576.119019 837.722717,576.236389 838.484192,576.593506 
	C838.303528,576.760376 837.674927,576.687500 837.070984,576.308105 
z"/>
<path fill="#B7B7B6" opacity="1.000000" stroke="none" 
	d="
M921.143188,577.276917 
	C921.459534,577.102844 921.748230,577.203918 922.453369,577.508423 
	C922.285034,577.658691 921.700256,577.605408 921.143188,577.276917 
z"/>
<path fill="#535352" opacity="1.000000" stroke="none" 
	d="
M918.791992,479.925659 
	C912.485779,485.338654 906.288757,490.885498 899.850220,496.136200 
	C887.317322,506.357208 884.953125,513.957581 889.840820,529.439453 
	C890.672913,532.074951 891.457764,534.725403 892.347290,537.640442 
	C883.264221,538.776855 874.942139,537.229858 868.600281,531.935791 
	C851.764709,517.881714 833.513550,504.758270 819.669312,488.074890 
	C801.390442,466.047363 797.333069,439.163208 805.867676,411.159058 
	C806.595520,408.770844 807.721375,406.473999 808.192383,404.043640 
	C809.238647,398.645264 809.986633,393.189087 810.911499,387.411316 
	C811.666626,387.906250 812.770447,388.792206 814.007690,389.411743 
	C818.740540,391.781799 823.303162,394.916199 828.327759,396.176880 
	C835.311096,397.929016 841.597778,400.554871 846.933899,405.283722 
	C855.238708,412.643250 863.723328,413.719696 873.090820,407.104523 
	C881.784668,400.965027 891.463684,397.539276 902.185120,396.171936 
	C913.126953,394.776520 917.580200,391.862152 930.174805,382.153290 
	C931.746887,384.824829 933.300537,387.464966 935.033691,390.410217 
	C917.513855,395.251160 913.716614,408.901642 912.884949,424.338409 
	C912.111328,438.696594 915.042725,452.491241 919.585205,466.023834 
	C920.528015,468.832886 921.082397,471.772278 921.560425,475.243347 
	C920.467346,477.198639 919.629639,478.562134 918.791992,479.925659 
M887.279907,452.264435 
	C895.753113,456.933716 903.673340,453.638306 904.083008,444.852905 
	C901.068665,446.407898 898.370544,448.541840 895.364380,449.148102 
	C892.167297,449.792908 888.678345,448.990356 884.725525,448.789825 
	C885.537842,450.023376 886.121521,450.909668 887.279907,452.264435 
M854.053955,433.575409 
	C853.628357,433.361511 853.041321,432.847992 852.800720,432.977570 
	C846.903809,436.153412 841.150635,435.757721 835.451843,432.467743 
	C835.349243,432.408539 834.971130,432.826630 834.410095,433.265778 
	C835.872375,437.554413 838.960815,440.077148 843.417969,440.399597 
	C848.179077,440.744049 852.274536,439.237030 854.053955,433.575409 
M861.467957,507.494141 
	C868.182922,506.394501 870.440857,504.462677 870.585876,498.671844 
	C864.481812,503.463379 858.181274,502.931335 851.639893,500.105347 
	C853.008484,505.257141 856.393494,506.972992 861.467957,507.494141 
M816.792603,429.906281 
	C824.340454,431.364197 828.801514,429.400421 829.468079,424.175598 
	C826.202515,424.561646 822.872314,425.603394 819.769531,425.135712 
	C816.802307,424.688477 814.071655,422.671600 811.237000,421.344635 
	C810.850403,421.735779 810.463806,422.126953 810.077209,422.518097 
	C812.087036,424.880310 814.096924,427.242523 816.792603,429.906281 
M900.728638,473.607544 
	C899.628479,473.575195 898.151978,473.066559 897.490417,473.589294 
	C893.741760,476.551514 889.630615,476.695435 885.252502,475.762665 
	C884.084961,475.513855 882.888184,475.402069 880.796021,475.093231 
	C883.163452,479.785461 886.396423,481.439301 890.364563,481.473450 
	C895.343201,481.516357 898.791931,478.975281 900.728638,473.607544 
M860.433044,459.983643 
	C861.405884,458.476105 862.378723,456.968536 863.351501,455.460968 
	C863.109924,455.056183 862.868286,454.651367 862.626709,454.246582 
	C856.564331,457.544739 850.467651,458.667389 844.039734,454.040314 
	C845.703491,462.194031 852.158813,464.319366 860.433044,459.983643 
M882.120728,428.526672 
	C886.328003,431.541443 890.764038,432.007202 895.081055,429.050507 
	C897.409668,427.455627 899.676025,425.383331 898.189392,420.671387 
	C892.941284,426.752472 886.841125,427.160004 880.109863,424.022217 
	C880.049744,424.458313 879.989685,424.894409 879.929626,425.330475 
	C880.479431,426.229919 881.029236,427.129364 882.120728,428.526672 
M862.389099,478.230927 
	C857.069275,478.583496 851.749390,478.936096 846.324280,479.295654 
	C847.324829,482.693176 850.671448,484.536621 854.817749,485.018341 
	C859.070251,485.512451 862.782959,484.217133 865.075195,480.299805 
	C866.490173,477.881592 866.104126,476.688873 862.389099,478.230927 
M828.001892,479.783142 
	C829.494934,478.313904 830.988037,476.844635 832.481079,475.375366 
	C832.191345,475.002167 831.901611,474.628967 831.611877,474.255737 
	C828.566711,474.764679 825.447754,475.931854 822.496826,475.600830 
	C819.432068,475.257050 816.529846,473.463898 813.448486,472.262421 
	C814.256104,479.564240 819.208801,482.281250 828.001892,479.783142 
M815.329956,449.370209 
	C813.083923,448.260132 810.837891,447.150055 808.338257,445.914642 
	C809.222900,451.734833 812.626709,454.923309 817.552185,454.725220 
	C821.669861,454.559631 824.818848,452.887115 826.826904,448.353638 
	C822.552246,448.833466 819.318787,449.196442 815.329956,449.370209 
z"/>
<path fill="#545353" opacity="1.000000" stroke="none" 
	d="
M964.700012,481.009155 
	C965.086914,487.822021 965.473816,494.634888 965.860657,501.447754 
	C965.252930,501.560791 964.645142,501.673859 964.037415,501.786896 
	C955.036072,496.621643 951.828857,487.126831 947.083252,478.022522 
	C946.387329,476.955200 945.937073,476.463318 944.849365,475.275055 
	C944.982544,477.501373 945.056458,478.736145 945.130371,479.970886 
	C944.388489,481.631592 943.827698,484.545105 942.865906,484.684113 
	C941.038330,484.948212 938.509399,484.147827 937.097961,482.874146 
	C929.203552,475.750214 923.478577,466.752014 921.408569,456.582520 
	C919.051453,445.002319 918.257568,432.979858 918.100403,421.132202 
	C918.029785,415.805908 920.359314,410.003204 922.991943,405.175842 
	C928.963989,394.224884 939.416687,392.879150 948.769653,401.232330 
	C955.522522,407.263306 959.829651,414.984131 962.828979,423.341278 
	C969.359619,441.538361 970.201050,460.393158 968.021240,479.534241 
	C965.100403,476.165436 962.716064,472.727295 960.331726,469.289124 
	C959.929565,469.506439 959.527405,469.723724 959.125244,469.941010 
	C960.983521,473.630402 962.841736,477.319794 964.700012,481.009155 
z"/>
<path fill="#535352" opacity="1.000000" stroke="none" 
	d="
M904.996216,305.990234 
	C911.395325,302.907166 917.901001,300.023895 924.163696,296.684998 
	C930.446899,293.335114 936.487915,289.530884 943.184937,285.603302 
	C939.688232,295.976166 934.830261,305.052979 925.763489,311.063202 
	C921.084473,314.164856 915.880127,316.573486 910.700867,318.802032 
	C896.787598,324.788605 884.223389,332.684692 873.424316,343.398895 
	C867.472412,349.304077 857.445984,349.452423 850.968140,344.114410 
	C850.069885,343.374298 849.166809,342.620819 848.379150,341.768860 
	C837.886169,330.419128 825.789062,321.187988 812.228760,313.758789 
	C802.960999,308.681305 796.740723,300.795563 792.958252,290.980194 
	C792.400635,289.533356 792.136353,287.973572 791.558167,285.794556 
	C803.439209,292.658325 814.558289,298.941925 825.505310,305.512177 
	C827.998413,307.008484 829.783325,307.480927 832.683960,306.298370 
	C855.773926,296.884796 879.012268,296.773682 902.785278,306.113098 
	C903.872253,306.228485 904.434204,306.109375 904.996216,305.990234 
z"/>
<path fill="#565554" opacity="1.000000" stroke="none" 
	d="
M845.972473,346.986145 
	C846.125305,346.920197 846.377136,346.759857 846.416992,346.801697 
	C851.710632,352.349762 858.803040,352.078735 865.564026,352.415741 
	C867.810425,352.527740 870.519165,351.642090 872.341858,350.297729 
	C876.478333,347.246857 880.056152,343.448364 884.120667,340.287506 
	C888.707397,336.720551 893.398743,333.221375 898.365479,330.224670 
	C907.216125,324.884552 912.882324,326.250244 919.200317,334.654388 
	C928.910950,347.571320 925.495544,367.969910 912.154358,376.736816 
	C898.505981,385.705566 880.116516,380.667969 871.905457,365.704956 
	C870.945068,363.954712 870.405151,361.744415 868.998108,360.519928 
	C866.622314,358.452454 863.571838,355.474548 861.057678,355.699707 
	C858.230225,355.952911 855.469971,359.114014 853.102112,361.439453 
	C851.903320,362.616791 851.623596,364.735931 850.944763,366.435822 
	C845.454163,380.185791 830.932068,384.796661 818.512390,376.730316 
	C803.734863,367.132629 801.571716,343.079956 814.421082,331.237305 
	C820.423584,325.705078 823.298401,325.383453 829.540039,330.506012 
	C833.081055,333.412231 836.051147,337.014099 838.761841,340.656860 
	C837.588257,340.904053 836.934326,340.769409 836.273560,340.694397 
	C829.677002,339.945435 824.758423,342.623291 822.525024,348.168365 
	C820.207520,353.922363 822.004395,360.664703 826.839478,364.357086 
	C831.439087,367.869629 838.023865,367.946869 842.682251,364.542755 
	C847.311157,361.160095 848.770264,355.459869 846.598145,349.343628 
	C846.326904,348.580048 846.178040,347.773010 845.972473,346.986145 
M906.742615,345.964508 
	C901.956665,340.031982 896.757324,338.069122 890.655212,339.891083 
	C885.268799,341.499359 881.352173,346.286957 880.819519,351.913940 
	C880.248718,357.944855 883.158386,363.374146 888.349976,365.964691 
	C893.716187,368.642395 900.344360,367.695251 904.603943,363.642029 
	C909.038574,359.422302 909.941406,353.303833 906.742615,345.964508 
z"/>
<path fill="#545353" opacity="1.000000" stroke="none" 
	d="
M920.970764,554.083435 
	C926.499451,559.622925 927.294250,564.137390 923.629639,570.752380 
	C921.371277,565.812805 917.646790,563.343445 912.393494,562.816101 
	C911.372192,562.713684 910.134277,560.793213 909.707214,559.480103 
	C908.352112,555.313416 906.728149,551.323853 901.610291,551.331055 
	C896.564392,551.338196 894.681824,555.061768 893.462097,559.393311 
	C893.092163,560.707092 891.752136,562.694885 890.783203,562.738281 
	C884.736145,563.008545 880.012268,565.541992 876.349915,570.617737 
	C874.039673,561.875977 879.297424,553.627747 887.520508,553.444275 
	C893.063843,553.320740 895.720825,550.614014 896.200623,545.888672 
	C896.675354,541.214050 896.305481,536.397949 895.792664,531.700012 
	C895.491760,528.943481 894.034912,526.333862 893.366394,523.592773 
	C891.482544,515.867493 892.958008,509.048126 899.202026,503.679230 
	C907.737854,496.339752 916.289246,489.018341 925.087830,481.471497 
	C927.603821,487.654022 930.558594,493.820587 932.544983,500.284698 
	C933.456726,503.251831 933.118347,506.997498 932.207520,510.050171 
	C930.170349,516.877625 927.418579,523.491943 924.630005,530.737915 
	C923.814880,532.168823 923.327637,533.055054 922.840393,533.941223 
	C921.287476,535.065979 919.187073,535.868042 918.294617,537.382080 
	C916.389343,540.614319 914.477051,544.108887 913.869629,547.715271 
	C913.607849,549.269653 916.578430,551.368408 918.696045,553.437683 
	C919.864624,553.798157 920.417664,553.940796 920.970764,554.083435 
z"/>
<path fill="#585756" opacity="1.000000" stroke="none" 
	d="
M808.096130,373.893036 
	C813.697632,379.146179 819.272705,384.356598 827.510010,385.174530 
	C835.505859,385.968506 842.745605,384.418701 849.581116,377.976898 
	C853.437744,385.526581 856.982178,392.465118 860.858765,400.053925 
	C865.440247,392.074036 867.527527,383.275879 875.472473,377.773499 
	C884.468750,384.928528 894.623230,388.038147 906.077148,384.707611 
	C913.535278,382.538971 919.545593,378.309662 923.822815,371.727264 
	C934.048218,355.990997 930.490479,337.867615 914.350525,323.600311 
	C919.976318,318.864441 921.174744,318.932404 925.012207,324.665497 
	C933.407532,337.207855 936.020813,350.778442 932.684937,365.623627 
	C930.229004,376.553009 923.407776,383.471313 913.572388,387.711914 
	C909.483276,389.474945 905.080750,391.084412 900.702637,391.490570 
	C889.918213,392.491119 880.306335,396.378967 871.528259,402.314789 
	C863.760620,407.567383 856.888794,407.888245 849.556641,401.382507 
	C843.525757,396.031342 836.198853,392.940216 828.213379,391.082825 
	C819.090698,388.960968 811.857849,383.846802 807.778687,374.606384 
	C807.853333,374.136902 808.096130,373.893036 808.096130,373.893036 
z"/>
<path fill="#565555" opacity="1.000000" stroke="none" 
	d="
M826.000061,502.129211 
	C834.659668,509.688934 843.319275,517.248657 852.430481,525.253784 
	C853.544128,526.282593 854.206177,526.865967 854.868164,527.449402 
	C854.295166,530.309814 853.722229,533.170288 852.686890,536.478638 
	C851.237671,537.859375 850.250977,538.792114 849.264282,539.724915 
	C844.539246,547.748718 845.625671,551.911377 853.307861,556.207214 
	C854.864563,557.077759 856.022339,558.661499 858.325195,560.815430 
	C855.111633,561.259644 853.366760,561.534363 851.613403,561.735474 
	C848.847656,562.052551 847.263245,561.563538 846.593323,558.091064 
	C845.438110,552.103394 840.875488,550.434082 834.881104,553.730347 
	C833.906494,555.129517 833.412720,556.050598 832.918945,556.971619 
	C832.106262,558.907837 831.293579,560.844116 830.480896,562.780334 
	C830.056580,562.630249 829.632202,562.480103 829.207886,562.330017 
	C828.850647,560.440430 828.790283,558.424255 828.053650,556.696411 
	C827.298218,554.924255 825.881287,553.434082 824.654907,551.678894 
	C826.088928,549.958191 828.064880,548.307861 829.104797,546.196472 
	C831.648804,541.031494 832.647400,536.083008 829.781128,530.106689 
	C825.208984,520.573486 820.803589,510.703827 822.045288,499.479767 
	C823.681213,500.279205 824.840637,501.204193 826.000061,502.129211 
z"/>
<path fill="#585756" opacity="1.000000" stroke="none" 
	d="
M791.218628,454.408508 
	C791.545776,465.461975 791.912354,476.053680 792.279480,486.662933 
	C792.182495,486.581299 791.592285,486.325317 791.408447,485.895538 
	C782.383301,464.799652 778.976990,442.997833 785.335815,420.656982 
	C787.216675,414.048798 791.694580,408.028961 795.714233,402.248413 
	C797.535400,399.629486 801.143250,398.253021 804.092590,396.207458 
	C799.706360,415.939850 795.482178,434.943298 791.218628,454.408508 
z"/>
<path fill="#565555" opacity="1.000000" stroke="none" 
	d="
M954.234253,571.569702 
	C953.654663,572.415649 952.729675,573.521118 952.267090,573.353088 
	C945.707886,570.971558 939.156006,568.545654 932.752625,565.782288 
	C931.649475,565.306213 930.831543,563.289795 930.583984,561.863098 
	C929.538940,555.841064 926.934387,551.294739 920.711304,549.309204 
	C917.722778,548.355713 917.507324,545.446533 919.921814,542.671509 
	C924.332947,537.601746 928.727783,532.517883 933.424622,527.099182 
	C940.109436,541.367249 947.106689,556.302246 954.234253,571.569702 
z"/>
<path fill="#565555" opacity="1.000000" stroke="none" 
	d="
M816.783569,507.075867 
	C818.190002,513.767456 819.548218,520.022278 821.028198,526.837585 
	C804.270081,518.429932 790.097473,470.659912 797.830261,449.279724 
	C798.610046,452.673462 799.195862,455.384552 799.858093,458.076874 
	C802.545288,469.001007 806.806946,479.175690 813.485168,488.354095 
	C815.026978,490.473206 815.572327,493.498749 816.004028,496.198700 
	C816.552612,499.630066 816.518372,503.154694 816.783569,507.075867 
z"/>
<path fill="#565555" opacity="1.000000" stroke="none" 
	d="
M950.807556,494.089844 
	C953.069397,496.924255 954.916321,500.290131 957.696533,502.460419 
	C961.289429,505.265076 962.373901,508.448273 962.269531,512.754639 
	C962.058044,521.488037 962.206360,530.230103 961.380371,539.161194 
	C948.859863,522.606628 939.754700,504.485901 932.408142,485.167145 
	C936.867737,489.153870 941.545593,491.488251 947.470947,489.496704 
	C947.656860,489.434235 948.113892,490.178406 948.758301,491.080322 
	C949.650574,492.439392 950.229065,493.264618 950.807556,494.089844 
z"/>
<path fill="#565555" opacity="1.000000" stroke="none" 
	d="
M853.060791,542.297180 
	C853.436279,541.686462 853.811707,541.075806 853.905823,540.214478 
	C853.624512,539.963928 853.648865,539.944153 853.648865,539.944153 
	C856.004150,537.767090 858.359375,535.590027 861.175903,532.986572 
	C869.765930,539.462830 880.163452,542.905823 891.596741,543.131226 
	C892.131714,546.843079 890.814514,548.649475 887.460449,548.802368 
	C881.025085,549.095825 876.715454,552.428589 873.550171,557.878662 
	C870.992615,562.282349 863.359375,561.708496 860.686401,557.310852 
	C859.424438,555.234802 857.520203,553.549133 855.625000,551.060425 
	C854.764587,548.636169 854.186157,546.838013 853.587646,544.689575 
	C853.398621,543.658508 853.229736,542.977844 853.060791,542.297180 
z"/>
<path fill="#F7D041" opacity="1.000000" stroke="none" 
	d="
M846.002563,346.994507 
	C846.178040,347.773010 846.326904,348.580048 846.598145,349.343628 
	C848.770264,355.459869 847.311157,361.160095 842.682251,364.542755 
	C838.023865,367.946869 831.439087,367.869629 826.839478,364.357086 
	C822.004395,360.664703 820.207520,353.922363 822.525024,348.168365 
	C824.758423,342.623291 829.677002,339.945435 836.273560,340.694397 
	C836.934326,340.769409 837.588257,340.904053 838.634277,341.004089 
	C839.023254,340.997131 838.986877,340.941254 839.157471,341.228027 
	C839.899292,341.858521 840.470398,342.202240 841.041565,342.546021 
	C841.425964,342.917114 841.810425,343.288208 842.595215,344.016022 
	C843.674988,344.935577 844.354370,345.498383 845.033752,346.061218 
	C845.033752,346.061218 845.036011,345.968719 845.041687,346.255402 
	C845.367859,346.715027 845.688416,346.887939 846.008911,347.060883 
	C846.008911,347.060883 846.032593,347.002930 846.002563,346.994507 
z"/>
<path fill="#565554" opacity="1.000000" stroke="none" 
	d="
M854.416138,377.080780 
	C855.606567,371.629883 856.457153,366.316803 858.567139,361.562683 
	C859.679688,359.056091 863.054077,359.371063 864.647766,362.089386 
	C866.732605,365.645294 868.484497,369.412811 870.124207,373.199890 
	C870.465271,373.987488 869.939453,375.418182 869.387634,376.279907 
	C866.469421,380.836761 863.415100,385.306458 860.210144,390.102448 
	C858.381104,385.978180 856.490234,381.714478 854.416138,377.080780 
z"/>
<path fill="#585756" opacity="1.000000" stroke="none" 
	d="
M944.577209,531.862061 
	C942.760071,529.767151 941.172485,527.401306 939.081177,525.630066 
	C933.658203,521.037170 935.828430,515.957397 938.089417,509.468414 
	C943.139709,519.253723 947.718018,528.124451 952.296326,536.995239 
	C951.730225,537.390686 951.164124,537.786133 950.597961,538.181580 
	C949.365295,537.047424 948.132568,535.913208 946.536865,534.319214 
	C945.641663,533.193604 945.109436,532.527832 944.577209,531.862061 
z"/>
<path fill="#585756" opacity="1.000000" stroke="none" 
	d="
M800.967896,568.398254 
	C797.353638,571.442505 798.270935,567.887451 798.232666,566.642883 
	C797.986877,558.646790 805.608154,552.057861 814.708191,552.555542 
	C813.283142,557.011658 813.766235,563.046143 806.261780,563.215149 
	C804.492004,563.255005 802.791504,566.371033 800.967896,568.398254 
z"/>
<path fill="#565555" opacity="1.000000" stroke="none" 
	d="
M903.926270,556.530640 
	C906.883911,562.630432 903.584900,567.098633 900.227905,571.872925 
	C896.163940,564.445496 896.547363,559.772888 901.971985,555.891602 
	C903.066467,556.135681 903.496338,556.333130 903.926270,556.530640 
z"/>
<path fill="#585756" opacity="1.000000" stroke="none" 
	d="
M824.083679,559.703369 
	C821.687805,563.638123 819.359070,567.183960 816.878052,570.961670 
	C814.736267,566.824036 815.498718,559.939270 818.308350,557.399780 
	C821.148438,554.832825 823.348328,555.182861 824.083679,559.703369 
z"/>
<path fill="#585756" opacity="1.000000" stroke="none" 
	d="
M842.771973,563.921021 
	C841.802856,566.116211 840.833801,568.311340 839.314270,571.753174 
	C837.949280,567.678162 836.413513,564.916077 836.284119,562.089539 
	C836.192200,560.082214 837.997742,557.988037 838.956421,555.932617 
	C840.265320,557.701233 841.574280,559.469849 842.870117,561.932373 
	C842.828674,563.057922 842.800354,563.489441 842.771973,563.921021 
z"/>
<path fill="#B7B7B6" opacity="1.000000" stroke="none" 
	d="
M965.047852,480.991089 
	C962.841736,477.319794 960.983521,473.630402 959.125244,469.941010 
	C959.527405,469.723724 959.929565,469.506439 960.331726,469.289124 
	C962.716064,472.727295 965.100403,476.165436 967.725464,479.842743 
	C967.109314,480.378937 966.252563,480.675964 965.047852,480.991089 
z"/>
<path fill="#848585" opacity="1.000000" stroke="none" 
	d="
M853.607788,545.039917 
	C854.186157,546.838013 854.764587,548.636169 855.401001,550.788330 
	C850.855591,551.902527 849.220703,550.041809 850.981323,545.385376 
	C852.150330,545.145752 852.879028,545.092834 853.607788,545.039917 
z"/>
<path fill="#B7B7B6" opacity="1.000000" stroke="none" 
	d="
M944.201416,531.888794 
	C945.109436,532.527832 945.641663,533.193604 946.278687,534.094666 
	C945.851562,534.791687 945.319702,535.253418 944.105896,535.870361 
	C943.108887,536.352722 942.793823,536.679993 942.478760,537.007202 
	C941.860962,535.872803 941.243164,534.738342 940.288879,532.986084 
	C941.641785,532.576599 942.733704,532.246033 944.201416,531.888794 
z"/>
<path fill="#B7B7B6" opacity="1.000000" stroke="none" 
	d="
M825.977539,501.770752 
	C824.840637,501.204193 823.681213,500.279205 822.260864,499.172760 
	C824.388428,497.245636 824.727051,497.452911 825.977539,501.770752 
z"/>
<path fill="#B7B7B6" opacity="1.000000" stroke="none" 
	d="
M853.494019,539.408691 
	C853.648865,539.944153 853.624512,539.963928 853.618774,539.978271 
	C852.526062,539.940308 851.439209,539.888062 849.808289,539.780396 
	C850.250977,538.792114 851.237671,537.859375 852.553467,536.810059 
	C853.034790,537.420105 853.186951,538.146606 853.494019,539.408691 
z"/>
<path fill="#B7B7B6" opacity="1.000000" stroke="none" 
	d="
M853.587646,544.689575 
	C852.879028,545.092834 852.150330,545.145752 851.210815,545.099365 
	C851.563416,544.200989 852.126892,543.401917 852.875549,542.450073 
	C853.229736,542.977844 853.398621,543.658508 853.587646,544.689575 
z"/>
<path fill="#B7B7B6" opacity="1.000000" stroke="none" 
	d="
M919.165405,479.850372 
	C919.629639,478.562134 920.467346,477.198639 921.573853,475.605988 
	C921.074768,476.842926 920.306763,478.308990 919.165405,479.850372 
z"/>
<path fill="#B7B7B6" opacity="1.000000" stroke="none" 
	d="
M923.150757,533.889282 
	C923.327637,533.055054 923.814880,532.168823 924.538513,531.089172 
	C924.336975,531.876221 923.899048,532.856750 923.150757,533.889282 
z"/>
<path fill="#B7B7B6" opacity="1.000000" stroke="none" 
	d="
M945.315125,479.781799 
	C945.056458,478.736145 944.982544,477.501373 944.849365,475.275055 
	C945.937073,476.463318 946.387329,476.955200 946.876953,477.736145 
	C946.444153,478.547699 945.972046,479.070190 945.315125,479.781799 
z"/>
<path fill="#B7B7B6" opacity="1.000000" stroke="none" 
	d="
M950.983154,493.864044 
	C950.229065,493.264618 949.650574,492.439392 949.022156,491.311890 
	C949.701111,491.885864 950.429932,492.762054 950.983154,493.864044 
z"/>
<path fill="#B7B7B6" opacity="1.000000" stroke="none" 
	d="
M833.233887,556.854919 
	C833.412720,556.050598 833.906494,555.129517 834.680054,554.051392 
	C834.489563,554.842285 834.019226,555.790222 833.233887,556.854919 
z"/>
<path fill="#B7B7B6" opacity="1.000000" stroke="none" 
	d="
M843.021606,563.872070 
	C842.800354,563.489441 842.828674,563.057922 842.946045,562.313416 
	C843.113770,562.608032 843.192505,563.215515 843.021606,563.872070 
z"/>
<path fill="#B7B7B6" opacity="1.000000" stroke="none" 
	d="
M904.818359,305.846588 
	C904.434204,306.109375 903.872253,306.228485 903.157593,306.167480 
	C903.550171,305.892517 904.095337,305.797699 904.818359,305.846588 
z"/>
<path fill="#B7B7B6" opacity="1.000000" stroke="none" 
	d="
M903.901489,556.255859 
	C903.496338,556.333130 903.066467,556.135681 902.317871,555.782715 
	C902.625000,555.745178 903.250854,555.863159 903.901489,556.255859 
z"/>
<path fill="#B7B7B6" opacity="1.000000" stroke="none" 
	d="
M920.900391,553.830933 
	C920.417664,553.940796 919.864624,553.798157 919.086731,553.476685 
	C919.517944,553.391418 920.174011,553.484924 920.900391,553.830933 
z"/>
<path fill="#B7B7B6" opacity="1.000000" stroke="none" 
	d="
M854.787109,527.096436 
	C854.206177,526.865967 853.544128,526.282593 852.703247,525.415955 
	C853.251587,525.669617 853.978821,526.206543 854.787109,527.096436 
z"/>
<path fill="#565554" opacity="1.000000" stroke="none" 
	d="
M845.021362,345.682190 
	C844.354370,345.498383 843.674988,344.935577 842.738403,344.156433 
	C843.323792,344.394440 844.166382,344.848785 845.021362,345.682190 
z"/>
<path fill="#515151" opacity="1.000000" stroke="none" 
	d="
M942.677979,537.224121 
	C942.793823,536.679993 943.108887,536.352722 943.772827,535.994385 
	C944.236755,536.281006 944.351746,536.598755 944.561646,537.152161 
	C944.482178,537.552490 944.307739,537.717163 943.865479,538.123962 
	C943.357544,538.057678 943.117310,537.749329 942.677979,537.224121 
z"/>
<path fill="#565554" opacity="1.000000" stroke="none" 
	d="
M840.924438,342.188538 
	C840.470398,342.202240 839.899292,341.858521 839.129883,341.246704 
	C839.556824,341.262787 840.182129,341.546967 840.924438,342.188538 
z"/>
<path fill="#B7B7B6" opacity="1.000000" stroke="none" 
	d="
M931.507996,483.512238 
	C931.485413,483.521362 931.530579,483.503113 931.507996,483.512238 
z"/>
<path fill="#565554" opacity="1.000000" stroke="none" 
	d="
M846.056152,346.727295 
	C845.688416,346.887939 845.367859,346.715027 844.995483,346.253632 
	C845.330200,346.108032 845.716858,346.250885 846.056152,346.727295 
z"/>
<path fill="#585756" opacity="1.000000" stroke="none" 
	d="
M807.730286,374.257172 
	C807.714050,374.089661 807.820923,373.801880 808.011963,373.703583 
	C808.096130,373.893036 807.853333,374.136902 807.730286,374.257172 
z"/>
<path fill="#585756" opacity="1.000000" stroke="none" 
	d="
M508.063416,429.820709 
	C508.472839,432.852081 509.708435,436.362946 508.467957,438.219177 
	C505.367889,442.858124 500.174652,440.598358 495.441589,440.793610 
	C495.441589,436.506073 495.441589,432.591400 495.441589,427.285614 
	C499.713165,428.069641 503.737854,428.808350 508.063416,429.820709 
z"/>
<path fill="#565555" opacity="1.000000" stroke="none" 
	d="
M616.199829,502.438721 
	C616.632202,511.779633 613.049255,517.080078 606.073303,517.935669 
	C598.988586,518.804565 593.580322,514.661316 592.283203,507.370972 
	C590.995178,500.132263 594.716370,493.635284 601.012817,492.129578 
	C608.233887,490.402740 613.860718,494.078125 616.199829,502.438721 
z"/>
<path fill="#585756" opacity="1.000000" stroke="none" 
	d="
M559.340942,443.345886 
	C556.194641,444.436646 552.933716,445.169098 548.360107,446.196411 
	C550.682251,440.286865 552.357361,436.024109 554.453735,430.689240 
	C556.299744,435.446167 557.763062,439.216858 559.340942,443.345886 
z"/>
<path fill="#B7B7B6" opacity="1.000000" stroke="none" 
	d="
M886.992554,452.030212 
	C886.121521,450.909668 885.537842,450.023376 884.725525,448.789825 
	C888.678345,448.990356 892.167297,449.792908 895.364380,449.148102 
	C898.370544,448.541840 901.068665,446.407898 904.083008,444.852905 
	C903.673340,453.638306 895.753113,456.933716 886.992554,452.030212 
z"/>
<path fill="#B7B7B6" opacity="1.000000" stroke="none" 
	d="
M854.116577,433.912415 
	C852.274536,439.237030 848.179077,440.744049 843.417969,440.399597 
	C838.960815,440.077148 835.872375,437.554413 834.410095,433.265778 
	C834.971130,432.826630 835.349243,432.408539 835.451843,432.467743 
	C841.150635,435.757721 846.903809,436.153412 852.800720,432.977570 
	C853.041321,432.847992 853.628357,433.361511 854.116577,433.912415 
z"/>
<path fill="#B7B7B6" opacity="1.000000" stroke="none" 
	d="
M861.085999,507.483276 
	C856.393494,506.972992 853.008484,505.257141 851.639893,500.105347 
	C858.181274,502.931335 864.481812,503.463379 870.585876,498.671844 
	C870.440857,504.462677 868.182922,506.394501 861.085999,507.483276 
z"/>
<path fill="#B7B7B6" opacity="1.000000" stroke="none" 
	d="
M816.449707,429.755493 
	C814.096924,427.242523 812.087036,424.880310 810.077209,422.518097 
	C810.463806,422.126953 810.850403,421.735779 811.237000,421.344635 
	C814.071655,422.671600 816.802307,424.688477 819.769531,425.135712 
	C822.872314,425.603394 826.202515,424.561646 829.468079,424.175598 
	C828.801514,429.400421 824.340454,431.364197 816.449707,429.755493 
z"/>
<path fill="#B7B7B6" opacity="1.000000" stroke="none" 
	d="
M900.659546,473.947479 
	C898.791931,478.975281 895.343201,481.516357 890.364563,481.473450 
	C886.396423,481.439301 883.163452,479.785461 880.796021,475.093231 
	C882.888184,475.402069 884.084961,475.513855 885.252502,475.762665 
	C889.630615,476.695435 893.741760,476.551514 897.490417,473.589294 
	C898.151978,473.066559 899.628479,473.575195 900.659546,473.947479 
z"/>
<path fill="#B7B7B6" opacity="1.000000" stroke="none" 
	d="
M860.134949,460.208191 
	C852.158813,464.319366 845.703491,462.194031 844.039734,454.040314 
	C850.467651,458.667389 856.564331,457.544739 862.626709,454.246582 
	C862.868286,454.651367 863.109924,455.056183 863.351501,455.460968 
	C862.378723,456.968536 861.405884,458.476105 860.134949,460.208191 
z"/>
<path fill="#B7B7B6" opacity="1.000000" stroke="none" 
	d="
M881.849854,428.277740 
	C881.029236,427.129364 880.479431,426.229919 879.929626,425.330475 
	C879.989685,424.894409 880.049744,424.458313 880.109863,424.022217 
	C886.841125,427.160004 892.941284,426.752472 898.189392,420.671387 
	C899.676025,425.383331 897.409668,427.455627 895.081055,429.050507 
	C890.764038,432.007202 886.328003,431.541443 881.849854,428.277740 
z"/>
<path fill="#B7B7B6" opacity="1.000000" stroke="none" 
	d="
M862.717957,478.059265 
	C866.104126,476.688873 866.490173,477.881592 865.075195,480.299805 
	C862.782959,484.217133 859.070251,485.512451 854.817749,485.018341 
	C850.671448,484.536621 847.324829,482.693176 846.324280,479.295654 
	C851.749390,478.936096 857.069275,478.583496 862.717957,478.059265 
z"/>
<path fill="#BCBCBB" opacity="1.000000" stroke="none" 
	d="
M827.640686,479.941589 
	C819.208801,482.281250 814.256104,479.564240 813.448486,472.262421 
	C816.529846,473.463898 819.432068,475.257050 822.496826,475.600830 
	C825.447754,475.931854 828.566711,474.764679 831.611877,474.255737 
	C831.901611,474.628967 832.191345,475.002167 832.481079,475.375366 
	C830.988037,476.844635 829.494934,478.313904 827.640686,479.941589 
z"/>
<path fill="#B7B7B6" opacity="1.000000" stroke="none" 
	d="
M815.707642,449.464813 
	C819.318787,449.196442 822.552246,448.833466 826.826904,448.353638 
	C824.818848,452.887115 821.669861,454.559631 817.552185,454.725220 
	C812.626709,454.923309 809.222900,451.734833 808.338257,445.914642 
	C810.837891,447.150055 813.083923,448.260132 815.707642,449.464813 
z"/>
<path fill="#F7D041" opacity="1.000000" stroke="none" 
	d="
M906.928162,346.298676 
	C909.941406,353.303833 909.038574,359.422302 904.603943,363.642029 
	C900.344360,367.695251 893.716187,368.642395 888.349976,365.964691 
	C883.158386,363.374146 880.248718,357.944855 880.819519,351.913940 
	C881.352173,346.286957 885.268799,341.499359 890.655212,339.891083 
	C896.757324,338.069122 901.956665,340.031982 906.928162,346.298676 
z"/>
</svg>